<?xml version="1.0" encoding="UTF-8"?>
<svg version="1.1" viewBox="0 0 2048 1545" width="1280" height="1280" xmlns="http://www.w3.org/2000/svg">
<path transform="translate(466,140)" d="m0 0h426l38 1 20 3 20 7 10 5 18 8 10 6 5 4 5 5 11 6 7 7 5 7 8 7 6 7 10 15 8 13 6 14 9 28 5 23 1 10 1 28v39l-1 1-288 1-23 3-30 7-21 7-23 11-19 12-13 9-11 9-3 3h-2v2l-5 4-7 8-11 12-11 16-13 20-10 23-10 28-4 16-2 16-1 152-52 1-2 4-6 8-10 21-3 11v19l4 18 8 27 7 16 4 10 1 5v9l-6 12-8 7-7 2h-11l-11-2-12-4-14-9-21-12-12-9-11-9-25-25-8-11-9-10-7-10-7-11-8-11-8-13-6-12-8-13-8-14-6-16-8-16-7-15-9-27-8-20-6-20-8-35-3-21-1-24v-205l1-28 4-22 10-36 10-18 13-21 12-13h2l2-4 6-7 20-15 9-7 17-9 16-7 13-5 15-4 14-2z" fill="#2E5655"/>
<path transform="translate(828,429)" d="m0 0h402l44 1 24 3 28 7 13 5 22 12 13 9 11 9 19 19 7 8 12 17 10 18 6 14 5 19 5 24 2 24v233l-2 22-9 39-6 20-13 34-7 20-12 25-10 23-8 13-10 19-12 19-8 11-12 17-10 11-8 10-12 13-8 7-12 11-16 11-13 10-19 9-20 8-7 1h-8l-13-9-6-7-2-6v-10l8-21 6-12 5-16 5-24v-22l-4-15-5-12-5-8-7-5-365-1-26-2-24-5-36-12-21-12-16-12-11-9-3-3v-2l-3-1-7-8-9-10-14-22-6-12-10-27-5-18-3-17-1-17v-229l1-21 6-27 11-31 11-20 12-17 11-12 16-16 16-12 11-7 17-9 12-5 25-7 24-4zm-13 50-20 2-17 3-17 7-20 12-9 7-10 9-11 12-8 11-7 11-6 16-6 18-3 19v248l2 16 6 21 8 20 9 15 9 11 15 15 8 7 20 12 10 5 19 5 19 3 387 1 16 1 8 9 8 5 9 12 6 7 4 4 9 20 6 18 3 16v21l-4 22-2 9 5-1 8-6 5-6 8-7 9-10 7-8 8-10 14-20 12-20 12-21 13-27 13-28 7-17 5-16 7-20 5-14 4-17 3-21 1-30v-193l-1-28-3-24-4-16-11-23-8-12-9-10-9-9-14-11-14-9-19-9-11-3-20-3-15-1z" fill="#315857"/>
<path transform="translate(1772,489)" d="m0 0 6 1 6 4 5 5 5 6 2 6v428l-3 9-6 7-10 5h-12l-20-6-31-13-25-9-15-5-32-13-24-8-36-14-25-9-26-10-20-7-7-5-5-13v-242l3-12 2-4 27-12 27-10 20-7 27-11 15-5 11-4 30-12 32-11 14-6 22-8 13-4 22-9zm-28 61-21 9-13 5-30 10-27 11-24 8-39 16-22 7-19 7-1 1-1 45v70l1 87 12 5 11 5 25 10 29 10 31 12 25 9 26 10 30 10 7 4h2l1-49v-302z" fill="#305857"/>
<path transform="translate(1831,1318)" d="m0 0h11l1 1 2 19 2 37 1 51h2l7-10 9-16 12-22 11-19 6-11 7-6 5-2h12l6 4 3 3 2 6 1 7v21l-2 20-6 27-13 41-6 10-5 1-6-5-2-5v-44l2-26 2-12h-2l-2 5-17 28-9 14-10 11-5 3-8 1-6-4-4-5-3-7-2-12-1-39-5 11-16 39-16 34-12 22-8 12-7 6h-7l-5-5-1-2v-7l5-18 8-21 14-31 10-23 8-16 19-40 8-14 5-10z" fill="#325958"/>
<path transform="translate(962,788)" d="m0 0 4 2 4 5 7 4 18 5 24 4 23 2h31l41-7 14-5 11-6 4-4 4 2 10 9 14 10 11 9-1 4-16 11-9 7-13 6-29 8-21 4-15 2-13 1h-27l-24-2-22-4-27-7-14-6-13-10-8-6-6-6 2-5 8-7 12-7z" fill="#315857"/>
<path transform="translate(848,646)" d="m0 0h17l13 4 9 6 10 10 7 11 2 6 1 7v13l-2 12-7 11-11 12-5 4-15 5-5 1h-13l-12-3-12-5-5-4-9-12-6-10-3-11v-12l4-13 9-14 8-9 13-6z" fill="#305756"/>
<path transform="translate(1217,646)" d="m0 0h23l11 4 9 5 7 6 10 17 3 9 1 5v10l-3 12-9 16-6 7-7 4-14 6-6 1h-14l-12-3-14-7-9-9-6-12-3-12v-15l4-16 4-8 7-8 10-6 10-5z" fill="#305756"/>
<path transform="translate(564,1323)" d="m0 0h6l6 4 6 7 4 10 1 7v27l-2 22v8l23 3 1 7-1 2h-28l-2 9-7 19-9 22-9 10h-6l-2-2-1-55-15 3-26 6-3 8-11 28-6 11h-4v-13l4-18 4-10-9-1-3-3 2-4 9-7 8-5 9-19 9-15 6-11 14-20 9-11 12-12zm-9 25-7 7-13 17-11 18-11 20v1l11-1 22-4 3-9 8-46v-3z" fill="#335A59"/>
<path transform="translate(1647,1323)" d="m0 0 7 1 6 5 6 9 3 9 1 5v25l-4 28-1 3 23 3 3 1 1 6-4 2-26 1-12 36-6 12-7 9-3 2-5-1-2-3v-23l1-22 1-9-40 9-4 4-12 28-7 16h-4l-1-5 4-21 4-12v-2l-10-3-2-4 9-7 10-7 12-22 8-16 14-22 11-13 7-8 9-8 7-5zm-11 26-11 12-14 21-10 17-5 10v2h7l25-4 2-1 9-55v-2z" fill="#355B5A"/>
<path transform="translate(740,1305)" d="m0 0 5 2 4 6-2 13-15 70-13 48-8 30-7 21 31-3 36-2 3 2-2 5-14 7-15 5-30 7-7 1h-15l-10-4-5-4-4-8v-18l5-17 7-19 9-27 5-19 9-24 14-39 11-21 6-10z" fill="#335A59"/>
<path transform="translate(350,1326)" d="m0 0h20l9 3 8 7 2 4v10l-3 1-9-5-4-1h-21l-3 1-6 37-2 9 12-2h34l18 4 6 4 2 3-1 4-1 1-18-1-21 2-17 4-15 5-6 3-5 23-3 18v6l23-2 30-5h8l1 7-8 3-37 13-15 3h-9l-8-3-7-7-5-10v-18l4-20 6-23 13-40 5-12-12 5h-5l-2-5 1-7 10-7 10-6 15-5z" fill="#335A59"/>
<path transform="translate(1430,1326)" d="m0 0h26l5 2 7 7 3 6v8l-5 1-5-4-5-1h-26l-1 13-5 30-1 4 12-2h34l18 4 6 4 2 3-1 4-1 1-18-1-21 2-27 7-8 4-8 29-3 16v3l17-1 18-3 19-3 7 1 1 5-10 5-31 11-18 4h-9l-9-4-8-8-4-8v-16l4-19 7-24 11-38 7-16-16 6-3-7 1-5 8-7 17-9z" fill="#345A59"/>
<path transform="translate(917,1326)" d="m0 0h8l8 3 6 4 3 6-1 4-4 4-9-2h-9l-12 4-25 13-12 8-13 10-11 8-4 3h-2v3l37 5 19 4 11 4 6 5 3 7v10l-3 6-8 10-8 7-15 10-11 5-18 4-9 1h-24l-9-2-1-5 5-4 27-8 16-5 12-5 11-7 11-8-4-2-26-5-30-5-8-4-5-6-1-4v-7l3-9 7-9 11-11 12-9 10-7 23-13 20-8z" fill="#345B5A"/>
<path transform="translate(189,1328)" d="m0 0h7l8 4 7 8 3 7v11l-4 11-8 15-11 13-14 10-14 8h-2l7 8 30 30 5 7 2 5v6l-5-1-10-6-10-9-14-11-21-18-2 3-12 31-11 21-4 1-2-3v-8l5-26 11-33 9-22 8-16 8-14 7-10 15-16 6-4zm2 22-8 7-6 7-11 15-3 6v2l5-1 10-9 9-12 5-9 1-5z" fill="#335A59"/>
<path transform="translate(1274,1328)" d="m0 0 9 2 8 7 4 8 1 10-3 12-8 16-11 12-7 7-14 9-8 4 2 4 5 6 14 14 7 8 5 5 8 9 2 4-1 7-5-1-8-6-11-9-10-9-22-18-4-3-1 5-11 24-12 27h-4l-3-4v-8l6-24 7-25 10-26 13-26 8-13 7-9 7-7 5-6 9-5zm-2 22-15 16-10 16-1 5 6-2 11-11 9-14 3-9z" fill="#335A59"/>
<path transform="translate(1107,1326)" d="m0 0h19l13 2 7 6 3 5-1 7-8 12-4-1-6-4-18-4h-19l-13 2-4 29-6 24-9 31-6 24-3 13-2 2-4-1-6-5-4-9v-30l2-18 7-24 12-31-14 4-14 3-14 1-1-1v-8l4-4 18-8 27-9 20-5 11-2z" fill="#345B5A"/>
</svg>
